<mxfile host="app.diagrams.net" agent="Mozilla/5.0 (Windows NT 10.0; Win64; x64) AppleWebKit/537.36 (KHTML, like Gecko) Chrome/131.0.0.0 Safari/537.36" version="24.8.4" pages="2">
  <diagram name="principal" id="f0qD12eNQ2soe91UOWoY">
    <mxGraphModel dx="1434" dy="806" grid="0" gridSize="10" guides="1" tooltips="1" connect="1" arrows="1" fold="1" page="1" pageScale="1" pageWidth="1169" pageHeight="827" math="0" shadow="0">
      <root>
        <mxCell id="0" />
        <mxCell id="1" parent="0" />
        <mxCell id="bKscCeVH96GY0mR0VeV3-2" value="" style="rounded=0;whiteSpace=wrap;html=1;fontColor=#FF0000;strokeColor=#FF0000;" parent="1" vertex="1">
          <mxGeometry x="343" y="243" width="560" height="311" as="geometry" />
        </mxCell>
        <mxCell id="bKscCeVH96GY0mR0VeV3-4" value="" style="rounded=0;whiteSpace=wrap;html=1;" parent="1" vertex="1">
          <mxGeometry x="385" y="304.5" width="139" height="188" as="geometry" />
        </mxCell>
        <mxCell id="bKscCeVH96GY0mR0VeV3-5" value="bronze" style="text;html=1;align=center;verticalAlign=middle;whiteSpace=wrap;rounded=0;" parent="1" vertex="1">
          <mxGeometry x="385" y="304.5" width="60" height="30" as="geometry" />
        </mxCell>
        <mxCell id="bKscCeVH96GY0mR0VeV3-8" value="" style="shape=image;verticalLabelPosition=bottom;labelBackgroundColor=default;verticalAlign=top;aspect=fixed;imageAspect=0;image=https://min.io/resources/img/logo/MINIO_wordmark.png;" parent="1" vertex="1">
          <mxGeometry x="354.5" y="254" width="121" height="18.24" as="geometry" />
        </mxCell>
        <mxCell id="bKscCeVH96GY0mR0VeV3-9" value="" style="rounded=0;whiteSpace=wrap;html=1;" parent="1" vertex="1">
          <mxGeometry x="560" y="304.5" width="139" height="188" as="geometry" />
        </mxCell>
        <mxCell id="bKscCeVH96GY0mR0VeV3-10" value="silver" style="text;html=1;align=center;verticalAlign=middle;whiteSpace=wrap;rounded=0;" parent="1" vertex="1">
          <mxGeometry x="560" y="304.5" width="60" height="30" as="geometry" />
        </mxCell>
        <mxCell id="bKscCeVH96GY0mR0VeV3-11" value="" style="rounded=0;whiteSpace=wrap;html=1;" parent="1" vertex="1">
          <mxGeometry x="736" y="304.5" width="139" height="188" as="geometry" />
        </mxCell>
        <mxCell id="bKscCeVH96GY0mR0VeV3-12" value="gold" style="text;html=1;align=center;verticalAlign=middle;whiteSpace=wrap;rounded=0;" parent="1" vertex="1">
          <mxGeometry x="736" y="304.5" width="60" height="30" as="geometry" />
        </mxCell>
        <mxCell id="bKscCeVH96GY0mR0VeV3-13" value="" style="shape=image;verticalLabelPosition=bottom;labelBackgroundColor=default;verticalAlign=top;aspect=fixed;imageAspect=0;image=https://www.prefeitura.sp.gov.br/cidade/secretarias/upload/chamadas/olhoVivo300x200_1505237362.png;" parent="1" vertex="1">
          <mxGeometry x="39.000000000000014" y="364.05999999999995" width="103.83" height="69.22" as="geometry" />
        </mxCell>
        <mxCell id="bKscCeVH96GY0mR0VeV3-14" value="API" style="text;html=1;align=center;verticalAlign=middle;whiteSpace=wrap;rounded=0;" parent="1" vertex="1">
          <mxGeometry x="60.91" y="416" width="60" height="30" as="geometry" />
        </mxCell>
        <mxCell id="bKscCeVH96GY0mR0VeV3-15" value="Dados em tempo real das linhas de ônibus de SP" style="text;html=1;align=left;verticalAlign=middle;whiteSpace=wrap;rounded=0;fontColor=#00CC00;" parent="1" vertex="1">
          <mxGeometry x="39" y="443" width="121" height="56" as="geometry" />
        </mxCell>
        <mxCell id="bKscCeVH96GY0mR0VeV3-16" value="" style="endArrow=classic;html=1;rounded=0;exitX=1;exitY=0.5;exitDx=0;exitDy=0;entryX=0;entryY=0.5;entryDx=0;entryDy=0;" parent="1" source="bKscCeVH96GY0mR0VeV3-13" edge="1">
          <mxGeometry width="50" height="50" relative="1" as="geometry">
            <mxPoint x="248" y="423" as="sourcePoint" />
            <mxPoint x="212" y="398.66499999999996" as="targetPoint" />
          </mxGeometry>
        </mxCell>
        <mxCell id="bKscCeVH96GY0mR0VeV3-18" value="" style="endArrow=classic;html=1;rounded=0;entryX=0;entryY=0.5;entryDx=0;entryDy=0;" parent="1" target="bKscCeVH96GY0mR0VeV3-4" edge="1">
          <mxGeometry width="50" height="50" relative="1" as="geometry">
            <mxPoint x="310" y="399" as="sourcePoint" />
            <mxPoint x="529" y="361" as="targetPoint" />
          </mxGeometry>
        </mxCell>
        <mxCell id="bKscCeVH96GY0mR0VeV3-19" value="Dado raw do raw em json." style="text;html=1;align=left;verticalAlign=middle;whiteSpace=wrap;rounded=0;fontColor=#00CC00;" parent="1" vertex="1">
          <mxGeometry x="385" y="483" width="160" height="56" as="geometry" />
        </mxCell>
        <mxCell id="bKscCeVH96GY0mR0VeV3-20" value="Dado em CSV e com tratamentos básicos, tipo de dado, etc." style="text;html=1;align=left;verticalAlign=middle;whiteSpace=wrap;rounded=0;fontColor=#00CC00;" parent="1" vertex="1">
          <mxGeometry x="556.44" y="238.35000000000002" width="160" height="82" as="geometry" />
        </mxCell>
        <mxCell id="bKscCeVH96GY0mR0VeV3-21" value="Cruzamentos e regras de negócio no geral." style="text;html=1;align=left;verticalAlign=middle;whiteSpace=wrap;rounded=0;fontColor=#00CC00;" parent="1" vertex="1">
          <mxGeometry x="731" y="467" width="160" height="82" as="geometry" />
        </mxCell>
        <mxCell id="bKscCeVH96GY0mR0VeV3-22" value="" style="shape=image;verticalLabelPosition=bottom;labelBackgroundColor=default;verticalAlign=top;aspect=fixed;imageAspect=0;image=https://uxwing.com/wp-content/themes/uxwing/download/brands-and-social-media/power-bi-icon.png;" parent="1" vertex="1">
          <mxGeometry x="1040" y="359.28" width="76" height="76" as="geometry" />
        </mxCell>
        <mxCell id="bKscCeVH96GY0mR0VeV3-23" value="" style="endArrow=classic;html=1;rounded=0;exitX=1;exitY=0.5;exitDx=0;exitDy=0;" parent="1" source="bKscCeVH96GY0mR0VeV3-11" target="bKscCeVH96GY0mR0VeV3-22" edge="1">
          <mxGeometry width="50" height="50" relative="1" as="geometry">
            <mxPoint x="799" y="411" as="sourcePoint" />
            <mxPoint x="849" y="361" as="targetPoint" />
          </mxGeometry>
        </mxCell>
        <mxCell id="bKscCeVH96GY0mR0VeV3-24" value="--" style="text;html=1;align=left;verticalAlign=middle;whiteSpace=wrap;rounded=0;fontColor=#00FF00;" parent="1" vertex="1">
          <mxGeometry x="998" y="443" width="160" height="82" as="geometry" />
        </mxCell>
        <mxCell id="bKscCeVH96GY0mR0VeV3-25" value="Power BI" style="text;html=1;align=center;verticalAlign=middle;whiteSpace=wrap;rounded=0;" parent="1" vertex="1">
          <mxGeometry x="1048" y="439" width="60" height="30" as="geometry" />
        </mxCell>
        <mxCell id="bKscCeVH96GY0mR0VeV3-27" value="" style="shape=image;verticalLabelPosition=bottom;labelBackgroundColor=default;verticalAlign=top;aspect=fixed;imageAspect=0;image=https://cdn.icon-icons.com/icons2/2699/PNG/512/apache_spark_logo_icon_170561.png;" parent="1" vertex="1">
          <mxGeometry x="666" y="105" width="112.02" height="56" as="geometry" />
        </mxCell>
        <mxCell id="bKscCeVH96GY0mR0VeV3-28" value="" style="endArrow=none;html=1;rounded=0;entryX=0.5;entryY=1;entryDx=0;entryDy=0;fontColor=#FF0000;" parent="1" target="bKscCeVH96GY0mR0VeV3-4" edge="1">
          <mxGeometry width="50" height="50" relative="1" as="geometry">
            <mxPoint x="455" y="601" as="sourcePoint" />
            <mxPoint x="557" y="361" as="targetPoint" />
          </mxGeometry>
        </mxCell>
        <mxCell id="bKscCeVH96GY0mR0VeV3-30" value="" style="endArrow=none;html=1;rounded=0;" parent="1" edge="1">
          <mxGeometry width="50" height="50" relative="1" as="geometry">
            <mxPoint x="455" y="601" as="sourcePoint" />
            <mxPoint x="630" y="601" as="targetPoint" />
          </mxGeometry>
        </mxCell>
        <mxCell id="bKscCeVH96GY0mR0VeV3-31" value="" style="endArrow=classic;html=1;rounded=0;entryX=0.5;entryY=1;entryDx=0;entryDy=0;" parent="1" target="bKscCeVH96GY0mR0VeV3-9" edge="1">
          <mxGeometry width="50" height="50" relative="1" as="geometry">
            <mxPoint x="630" y="601" as="sourcePoint" />
            <mxPoint x="557" y="483" as="targetPoint" />
          </mxGeometry>
        </mxCell>
        <mxCell id="bKscCeVH96GY0mR0VeV3-34" value="" style="shape=image;verticalLabelPosition=bottom;labelBackgroundColor=default;verticalAlign=top;aspect=fixed;imageAspect=0;image=https://static-00.iconduck.com/assets.00/docker-icon-512x438-ga1hb37h.png;" parent="1" vertex="1">
          <mxGeometry x="448.11" y="261" width="42.89" height="36.69" as="geometry" />
        </mxCell>
        <mxCell id="bKscCeVH96GY0mR0VeV3-35" value="" style="shape=image;verticalLabelPosition=bottom;labelBackgroundColor=default;verticalAlign=top;aspect=fixed;imageAspect=0;image=https://upload.wikimedia.org/wikipedia/commons/thumb/d/de/AirflowLogo.png/1200px-AirflowLogo.png;" parent="1" vertex="1">
          <mxGeometry x="524.0000000000001" y="673" width="174.56" height="67.5" as="geometry" />
        </mxCell>
        <mxCell id="bKscCeVH96GY0mR0VeV3-37" value="Transformações em spark via spark job." style="text;html=1;align=left;verticalAlign=middle;whiteSpace=wrap;rounded=0;fontColor=#00CC00;" parent="1" vertex="1">
          <mxGeometry x="467.01" y="554" width="147.99" height="56" as="geometry" />
        </mxCell>
        <mxCell id="bKscCeVH96GY0mR0VeV3-42" value="" style="endArrow=none;html=1;rounded=0;entryX=0.5;entryY=1;entryDx=0;entryDy=0;fontColor=#FF0000;" parent="1" edge="1">
          <mxGeometry width="50" height="50" relative="1" as="geometry">
            <mxPoint x="628.73" y="304.5" as="sourcePoint" />
            <mxPoint x="628.73" y="196.5" as="targetPoint" />
          </mxGeometry>
        </mxCell>
        <mxCell id="bKscCeVH96GY0mR0VeV3-43" value="" style="endArrow=none;html=1;rounded=0;" parent="1" edge="1">
          <mxGeometry width="50" height="50" relative="1" as="geometry">
            <mxPoint x="629" y="196" as="sourcePoint" />
            <mxPoint x="806" y="196" as="targetPoint" />
          </mxGeometry>
        </mxCell>
        <mxCell id="bKscCeVH96GY0mR0VeV3-44" value="" style="endArrow=classic;html=1;rounded=0;entryX=0.5;entryY=0;entryDx=0;entryDy=0;" parent="1" target="bKscCeVH96GY0mR0VeV3-11" edge="1">
          <mxGeometry width="50" height="50" relative="1" as="geometry">
            <mxPoint x="806" y="196" as="sourcePoint" />
            <mxPoint x="272" y="335" as="targetPoint" />
          </mxGeometry>
        </mxCell>
        <mxCell id="bKscCeVH96GY0mR0VeV3-45" value="Transformações em spark via spark job." style="text;html=1;align=left;verticalAlign=middle;whiteSpace=wrap;rounded=0;fontColor=#00CC00;" parent="1" vertex="1">
          <mxGeometry x="648.01" y="153" width="147.99" height="56" as="geometry" />
        </mxCell>
        <mxCell id="bKscCeVH96GY0mR0VeV3-47" value="Orquestrar as trasformações" style="text;html=1;align=left;verticalAlign=middle;whiteSpace=wrap;rounded=0;fontColor=#00CC00;" parent="1" vertex="1">
          <mxGeometry x="527.78" y="740.5" width="167" height="56" as="geometry" />
        </mxCell>
        <mxCell id="bKscCeVH96GY0mR0VeV3-53" value="Desenvolver o código dos jos [SÓ DEV]" style="text;html=1;align=left;verticalAlign=middle;whiteSpace=wrap;rounded=0;fontColor=#00CC00;" parent="1" vertex="1">
          <mxGeometry x="886" y="31.47" width="147.99" height="56" as="geometry" />
        </mxCell>
        <mxCell id="bKscCeVH96GY0mR0VeV3-54" value="" style="shape=image;verticalLabelPosition=bottom;labelBackgroundColor=default;verticalAlign=top;aspect=fixed;imageAspect=0;image=https://static-00.iconduck.com/assets.00/docker-icon-512x438-ga1hb37h.png;" parent="1" vertex="1">
          <mxGeometry x="735.13" y="134" width="42.89" height="36.69" as="geometry" />
        </mxCell>
        <mxCell id="bKscCeVH96GY0mR0VeV3-55" value="" style="shape=image;verticalLabelPosition=bottom;labelBackgroundColor=default;verticalAlign=top;aspect=fixed;imageAspect=0;image=https://static-00.iconduck.com/assets.00/docker-icon-512x438-ga1hb37h.png;" parent="1" vertex="1">
          <mxGeometry x="669" y="714" width="42.89" height="36.69" as="geometry" />
        </mxCell>
        <mxCell id="1ZM4Q_OPAeLDrhz4oj3O-1" value="" style="shape=image;verticalLabelPosition=bottom;labelBackgroundColor=default;verticalAlign=top;aspect=fixed;imageAspect=0;image=https://upload.wikimedia.org/wikipedia/commons/thumb/3/38/Jupyter_logo.svg/1200px-Jupyter_logo.svg.png;" vertex="1" parent="1">
          <mxGeometry x="818.97" y="24.680000000000007" width="60" height="69.57" as="geometry" />
        </mxCell>
        <mxCell id="BfodInd-seT1PpUiw16Y-2" value="" style="shape=image;verticalLabelPosition=bottom;labelBackgroundColor=default;verticalAlign=top;aspect=fixed;imageAspect=0;image=https://cdn.icon-icons.com/icons2/2699/PNG/512/apache_spark_logo_icon_170561.png;" vertex="1" parent="1">
          <mxGeometry x="209.32" y="364.06" width="112.02" height="56" as="geometry" />
        </mxCell>
        <mxCell id="BfodInd-seT1PpUiw16Y-3" value="" style="shape=image;verticalLabelPosition=bottom;labelBackgroundColor=default;verticalAlign=top;aspect=fixed;imageAspect=0;image=https://static-00.iconduck.com/assets.00/docker-icon-512x438-ga1hb37h.png;" vertex="1" parent="1">
          <mxGeometry x="278.45" y="393.06" width="42.89" height="36.69" as="geometry" />
        </mxCell>
        <mxCell id="BfodInd-seT1PpUiw16Y-4" value="" style="shape=image;verticalLabelPosition=bottom;labelBackgroundColor=default;verticalAlign=top;aspect=fixed;imageAspect=0;image=https://cdn-icons-png.flaticon.com/512/11471/11471482.png;" vertex="1" parent="1">
          <mxGeometry x="658.28" y="446.5" width="36.5" height="36.5" as="geometry" />
        </mxCell>
        <mxCell id="BfodInd-seT1PpUiw16Y-5" value="" style="shape=image;verticalLabelPosition=bottom;labelBackgroundColor=default;verticalAlign=top;aspect=fixed;imageAspect=0;image=https://cdn-icons-png.flaticon.com/512/11471/11471482.png;" vertex="1" parent="1">
          <mxGeometry x="835" y="446.5" width="36.5" height="36.5" as="geometry" />
        </mxCell>
        <mxCell id="BfodInd-seT1PpUiw16Y-7" value="" style="shape=image;verticalLabelPosition=bottom;labelBackgroundColor=default;verticalAlign=top;aspect=fixed;imageAspect=0;image=https://cdn-icons-png.flaticon.com/512/136/136525.png;" vertex="1" parent="1">
          <mxGeometry x="485" y="447" width="36" height="36" as="geometry" />
        </mxCell>
        <mxCell id="BfodInd-seT1PpUiw16Y-8" value="" style="shape=image;verticalLabelPosition=bottom;labelBackgroundColor=default;verticalAlign=top;aspect=fixed;imageAspect=0;image=https://cdn3.iconfinder.com/data/icons/logos-and-brands-adobe/512/267_Python-512.png;" vertex="1" parent="1">
          <mxGeometry x="999" y="355" width="38.06" height="38.06" as="geometry" />
        </mxCell>
        <mxCell id="BfodInd-seT1PpUiw16Y-9" value="Conexão com o Minio e o PBI via Python." style="text;html=1;align=left;verticalAlign=middle;whiteSpace=wrap;rounded=0;fontColor=#00CC00;" vertex="1" parent="1">
          <mxGeometry x="905" y="333.03" width="94" height="82" as="geometry" />
        </mxCell>
      </root>
    </mxGraphModel>
  </diagram>
  <diagram id="G75eJxtS_tzdBkuHGhoR" name="from API">
    <mxGraphModel dx="1134" dy="649" grid="0" gridSize="10" guides="1" tooltips="1" connect="1" arrows="1" fold="1" page="1" pageScale="1" pageWidth="1169" pageHeight="827" math="0" shadow="0">
      <root>
        <mxCell id="0" />
        <mxCell id="1" parent="0" />
        <mxCell id="O4aw3aB1ZCGd7pnBVmfd-28" value="Corredor" style="swimlane;fontStyle=0;childLayout=stackLayout;horizontal=1;startSize=26;fillColor=none;horizontalStack=0;resizeParent=1;resizeParentMax=0;resizeLast=0;collapsible=1;marginBottom=0;html=1;" vertex="1" parent="1">
          <mxGeometry x="138" y="89" width="140" height="78" as="geometry" />
        </mxCell>
        <mxCell id="O4aw3aB1ZCGd7pnBVmfd-29" value="cc" style="text;strokeColor=none;fillColor=none;align=left;verticalAlign=top;spacingLeft=4;spacingRight=4;overflow=hidden;rotatable=0;points=[[0,0.5],[1,0.5]];portConstraint=eastwest;whiteSpace=wrap;html=1;" vertex="1" parent="O4aw3aB1ZCGd7pnBVmfd-28">
          <mxGeometry y="26" width="140" height="26" as="geometry" />
        </mxCell>
        <mxCell id="O4aw3aB1ZCGd7pnBVmfd-30" value="nc" style="text;strokeColor=none;fillColor=none;align=left;verticalAlign=top;spacingLeft=4;spacingRight=4;overflow=hidden;rotatable=0;points=[[0,0.5],[1,0.5]];portConstraint=eastwest;whiteSpace=wrap;html=1;" vertex="1" parent="O4aw3aB1ZCGd7pnBVmfd-28">
          <mxGeometry y="52" width="140" height="26" as="geometry" />
        </mxCell>
        <mxCell id="O4aw3aB1ZCGd7pnBVmfd-32" value="ParadasPorCorredor" style="swimlane;fontStyle=0;childLayout=stackLayout;horizontal=1;startSize=26;fillColor=none;horizontalStack=0;resizeParent=1;resizeParentMax=0;resizeLast=0;collapsible=1;marginBottom=0;html=1;" vertex="1" parent="1">
          <mxGeometry x="387" y="89" width="140" height="156" as="geometry" />
        </mxCell>
        <mxCell id="O4aw3aB1ZCGd7pnBVmfd-33" value="cp" style="text;strokeColor=none;fillColor=none;align=left;verticalAlign=top;spacingLeft=4;spacingRight=4;overflow=hidden;rotatable=0;points=[[0,0.5],[1,0.5]];portConstraint=eastwest;whiteSpace=wrap;html=1;" vertex="1" parent="O4aw3aB1ZCGd7pnBVmfd-32">
          <mxGeometry y="26" width="140" height="26" as="geometry" />
        </mxCell>
        <mxCell id="O4aw3aB1ZCGd7pnBVmfd-34" value="np" style="text;strokeColor=none;fillColor=none;align=left;verticalAlign=top;spacingLeft=4;spacingRight=4;overflow=hidden;rotatable=0;points=[[0,0.5],[1,0.5]];portConstraint=eastwest;whiteSpace=wrap;html=1;" vertex="1" parent="O4aw3aB1ZCGd7pnBVmfd-32">
          <mxGeometry y="52" width="140" height="26" as="geometry" />
        </mxCell>
        <mxCell id="O4aw3aB1ZCGd7pnBVmfd-41" value="ed" style="text;strokeColor=none;fillColor=none;align=left;verticalAlign=top;spacingLeft=4;spacingRight=4;overflow=hidden;rotatable=0;points=[[0,0.5],[1,0.5]];portConstraint=eastwest;whiteSpace=wrap;html=1;" vertex="1" parent="O4aw3aB1ZCGd7pnBVmfd-32">
          <mxGeometry y="78" width="140" height="26" as="geometry" />
        </mxCell>
        <mxCell id="O4aw3aB1ZCGd7pnBVmfd-42" value="py" style="text;strokeColor=none;fillColor=none;align=left;verticalAlign=top;spacingLeft=4;spacingRight=4;overflow=hidden;rotatable=0;points=[[0,0.5],[1,0.5]];portConstraint=eastwest;whiteSpace=wrap;html=1;" vertex="1" parent="O4aw3aB1ZCGd7pnBVmfd-32">
          <mxGeometry y="104" width="140" height="26" as="geometry" />
        </mxCell>
        <mxCell id="O4aw3aB1ZCGd7pnBVmfd-35" value="px" style="text;strokeColor=none;fillColor=none;align=left;verticalAlign=top;spacingLeft=4;spacingRight=4;overflow=hidden;rotatable=0;points=[[0,0.5],[1,0.5]];portConstraint=eastwest;whiteSpace=wrap;html=1;" vertex="1" parent="O4aw3aB1ZCGd7pnBVmfd-32">
          <mxGeometry y="130" width="140" height="26" as="geometry" />
        </mxCell>
        <mxCell id="O4aw3aB1ZCGd7pnBVmfd-36" value="puxar o cc pela url da api" style="text;html=1;align=center;verticalAlign=middle;whiteSpace=wrap;rounded=0;" vertex="1" parent="1">
          <mxGeometry x="387" y="250" width="137" height="30" as="geometry" />
        </mxCell>
        <mxCell id="O4aw3aB1ZCGd7pnBVmfd-37" value="Linha" style="swimlane;fontStyle=0;childLayout=stackLayout;horizontal=1;startSize=26;fillColor=none;horizontalStack=0;resizeParent=1;resizeParentMax=0;resizeLast=0;collapsible=1;marginBottom=0;html=1;" vertex="1" parent="1">
          <mxGeometry x="850" y="89" width="140" height="208" as="geometry" />
        </mxCell>
        <mxCell id="O4aw3aB1ZCGd7pnBVmfd-38" value="cl" style="text;strokeColor=none;fillColor=none;align=left;verticalAlign=top;spacingLeft=4;spacingRight=4;overflow=hidden;rotatable=0;points=[[0,0.5],[1,0.5]];portConstraint=eastwest;whiteSpace=wrap;html=1;" vertex="1" parent="O4aw3aB1ZCGd7pnBVmfd-37">
          <mxGeometry y="26" width="140" height="26" as="geometry" />
        </mxCell>
        <mxCell id="O4aw3aB1ZCGd7pnBVmfd-39" value="lc" style="text;strokeColor=none;fillColor=none;align=left;verticalAlign=top;spacingLeft=4;spacingRight=4;overflow=hidden;rotatable=0;points=[[0,0.5],[1,0.5]];portConstraint=eastwest;whiteSpace=wrap;html=1;" vertex="1" parent="O4aw3aB1ZCGd7pnBVmfd-37">
          <mxGeometry y="52" width="140" height="26" as="geometry" />
        </mxCell>
        <mxCell id="O4aw3aB1ZCGd7pnBVmfd-44" value="lt" style="text;strokeColor=none;fillColor=none;align=left;verticalAlign=top;spacingLeft=4;spacingRight=4;overflow=hidden;rotatable=0;points=[[0,0.5],[1,0.5]];portConstraint=eastwest;whiteSpace=wrap;html=1;" vertex="1" parent="O4aw3aB1ZCGd7pnBVmfd-37">
          <mxGeometry y="78" width="140" height="26" as="geometry" />
        </mxCell>
        <mxCell id="O4aw3aB1ZCGd7pnBVmfd-45" value="sl" style="text;strokeColor=none;fillColor=none;align=left;verticalAlign=top;spacingLeft=4;spacingRight=4;overflow=hidden;rotatable=0;points=[[0,0.5],[1,0.5]];portConstraint=eastwest;whiteSpace=wrap;html=1;" vertex="1" parent="O4aw3aB1ZCGd7pnBVmfd-37">
          <mxGeometry y="104" width="140" height="26" as="geometry" />
        </mxCell>
        <mxCell id="O4aw3aB1ZCGd7pnBVmfd-46" value="tl" style="text;strokeColor=none;fillColor=none;align=left;verticalAlign=top;spacingLeft=4;spacingRight=4;overflow=hidden;rotatable=0;points=[[0,0.5],[1,0.5]];portConstraint=eastwest;whiteSpace=wrap;html=1;" vertex="1" parent="O4aw3aB1ZCGd7pnBVmfd-37">
          <mxGeometry y="130" width="140" height="26" as="geometry" />
        </mxCell>
        <mxCell id="O4aw3aB1ZCGd7pnBVmfd-47" value="tp" style="text;strokeColor=none;fillColor=none;align=left;verticalAlign=top;spacingLeft=4;spacingRight=4;overflow=hidden;rotatable=0;points=[[0,0.5],[1,0.5]];portConstraint=eastwest;whiteSpace=wrap;html=1;" vertex="1" parent="O4aw3aB1ZCGd7pnBVmfd-37">
          <mxGeometry y="156" width="140" height="26" as="geometry" />
        </mxCell>
        <mxCell id="O4aw3aB1ZCGd7pnBVmfd-40" value="ts" style="text;strokeColor=none;fillColor=none;align=left;verticalAlign=top;spacingLeft=4;spacingRight=4;overflow=hidden;rotatable=0;points=[[0,0.5],[1,0.5]];portConstraint=eastwest;whiteSpace=wrap;html=1;" vertex="1" parent="O4aw3aB1ZCGd7pnBVmfd-37">
          <mxGeometry y="182" width="140" height="26" as="geometry" />
        </mxCell>
        <mxCell id="O4aw3aB1ZCGd7pnBVmfd-43" value="puxar todas que vem ou vão para terminal" style="text;html=1;align=center;verticalAlign=middle;whiteSpace=wrap;rounded=0;" vertex="1" parent="1">
          <mxGeometry x="851.5" y="305" width="137" height="30" as="geometry" />
        </mxCell>
        <mxCell id="O4aw3aB1ZCGd7pnBVmfd-48" value="ParadasPorLinha" style="swimlane;fontStyle=0;childLayout=stackLayout;horizontal=1;startSize=26;fillColor=none;horizontalStack=0;resizeParent=1;resizeParentMax=0;resizeLast=0;collapsible=1;marginBottom=0;html=1;" vertex="1" parent="1">
          <mxGeometry x="619" y="89" width="140" height="156" as="geometry" />
        </mxCell>
        <mxCell id="O4aw3aB1ZCGd7pnBVmfd-49" value="cp" style="text;strokeColor=none;fillColor=none;align=left;verticalAlign=top;spacingLeft=4;spacingRight=4;overflow=hidden;rotatable=0;points=[[0,0.5],[1,0.5]];portConstraint=eastwest;whiteSpace=wrap;html=1;" vertex="1" parent="O4aw3aB1ZCGd7pnBVmfd-48">
          <mxGeometry y="26" width="140" height="26" as="geometry" />
        </mxCell>
        <mxCell id="O4aw3aB1ZCGd7pnBVmfd-50" value="np" style="text;strokeColor=none;fillColor=none;align=left;verticalAlign=top;spacingLeft=4;spacingRight=4;overflow=hidden;rotatable=0;points=[[0,0.5],[1,0.5]];portConstraint=eastwest;whiteSpace=wrap;html=1;" vertex="1" parent="O4aw3aB1ZCGd7pnBVmfd-48">
          <mxGeometry y="52" width="140" height="26" as="geometry" />
        </mxCell>
        <mxCell id="O4aw3aB1ZCGd7pnBVmfd-51" value="ed" style="text;strokeColor=none;fillColor=none;align=left;verticalAlign=top;spacingLeft=4;spacingRight=4;overflow=hidden;rotatable=0;points=[[0,0.5],[1,0.5]];portConstraint=eastwest;whiteSpace=wrap;html=1;" vertex="1" parent="O4aw3aB1ZCGd7pnBVmfd-48">
          <mxGeometry y="78" width="140" height="26" as="geometry" />
        </mxCell>
        <mxCell id="O4aw3aB1ZCGd7pnBVmfd-52" value="py" style="text;strokeColor=none;fillColor=none;align=left;verticalAlign=top;spacingLeft=4;spacingRight=4;overflow=hidden;rotatable=0;points=[[0,0.5],[1,0.5]];portConstraint=eastwest;whiteSpace=wrap;html=1;" vertex="1" parent="O4aw3aB1ZCGd7pnBVmfd-48">
          <mxGeometry y="104" width="140" height="26" as="geometry" />
        </mxCell>
        <mxCell id="O4aw3aB1ZCGd7pnBVmfd-53" value="px" style="text;strokeColor=none;fillColor=none;align=left;verticalAlign=top;spacingLeft=4;spacingRight=4;overflow=hidden;rotatable=0;points=[[0,0.5],[1,0.5]];portConstraint=eastwest;whiteSpace=wrap;html=1;" vertex="1" parent="O4aw3aB1ZCGd7pnBVmfd-48">
          <mxGeometry y="130" width="140" height="26" as="geometry" />
        </mxCell>
        <mxCell id="O4aw3aB1ZCGd7pnBVmfd-54" value="puxar pelo cl" style="text;html=1;align=center;verticalAlign=middle;whiteSpace=wrap;rounded=0;" vertex="1" parent="1">
          <mxGeometry x="619" y="250" width="137" height="30" as="geometry" />
        </mxCell>
        <mxCell id="O4aw3aB1ZCGd7pnBVmfd-57" value="" style="endArrow=none;html=1;rounded=0;exitX=1;exitY=0.5;exitDx=0;exitDy=0;" edge="1" parent="1" source="O4aw3aB1ZCGd7pnBVmfd-28">
          <mxGeometry width="50" height="50" relative="1" as="geometry">
            <mxPoint x="477" y="290" as="sourcePoint" />
            <mxPoint x="320" y="128" as="targetPoint" />
          </mxGeometry>
        </mxCell>
        <mxCell id="O4aw3aB1ZCGd7pnBVmfd-58" value="" style="endArrow=none;html=1;rounded=0;" edge="1" parent="1">
          <mxGeometry width="50" height="50" relative="1" as="geometry">
            <mxPoint x="320" y="264" as="sourcePoint" />
            <mxPoint x="320" y="128" as="targetPoint" />
          </mxGeometry>
        </mxCell>
        <mxCell id="O4aw3aB1ZCGd7pnBVmfd-59" value="" style="endArrow=classic;html=1;rounded=0;entryX=0;entryY=0.5;entryDx=0;entryDy=0;" edge="1" parent="1" target="O4aw3aB1ZCGd7pnBVmfd-36">
          <mxGeometry width="50" height="50" relative="1" as="geometry">
            <mxPoint x="320" y="264" as="sourcePoint" />
            <mxPoint x="467" y="139" as="targetPoint" />
          </mxGeometry>
        </mxCell>
        <mxCell id="O4aw3aB1ZCGd7pnBVmfd-65" value="" style="rounded=0;whiteSpace=wrap;html=1;fillColor=none;" vertex="1" parent="1">
          <mxGeometry x="114" y="34" width="940" height="318" as="geometry" />
        </mxCell>
        <mxCell id="O4aw3aB1ZCGd7pnBVmfd-60" value="" style="endArrow=none;html=1;rounded=0;exitX=1;exitY=0.5;exitDx=0;exitDy=0;entryX=0;entryY=0.5;entryDx=0;entryDy=0;" edge="1" parent="1" source="O4aw3aB1ZCGd7pnBVmfd-33" target="O4aw3aB1ZCGd7pnBVmfd-49">
          <mxGeometry width="50" height="50" relative="1" as="geometry">
            <mxPoint x="580" y="215" as="sourcePoint" />
            <mxPoint x="630" y="165" as="targetPoint" />
          </mxGeometry>
        </mxCell>
        <mxCell id="O4aw3aB1ZCGd7pnBVmfd-61" value="" style="endArrow=none;html=1;rounded=0;entryX=0;entryY=0.5;entryDx=0;entryDy=0;" edge="1" parent="1">
          <mxGeometry width="50" height="50" relative="1" as="geometry">
            <mxPoint x="813" y="128" as="sourcePoint" />
            <mxPoint x="850" y="128" as="targetPoint" />
          </mxGeometry>
        </mxCell>
        <mxCell id="O4aw3aB1ZCGd7pnBVmfd-62" value="" style="endArrow=none;html=1;rounded=0;" edge="1" parent="1">
          <mxGeometry width="50" height="50" relative="1" as="geometry">
            <mxPoint x="813" y="265" as="sourcePoint" />
            <mxPoint x="813" y="128" as="targetPoint" />
          </mxGeometry>
        </mxCell>
        <mxCell id="O4aw3aB1ZCGd7pnBVmfd-63" value="" style="endArrow=classic;html=1;rounded=0;entryX=1;entryY=0.5;entryDx=0;entryDy=0;" edge="1" parent="1">
          <mxGeometry width="50" height="50" relative="1" as="geometry">
            <mxPoint x="813" y="265" as="sourcePoint" />
            <mxPoint x="757" y="265" as="targetPoint" />
          </mxGeometry>
        </mxCell>
        <mxCell id="O4aw3aB1ZCGd7pnBVmfd-64" value="Raw" style="text;html=1;align=center;verticalAlign=middle;whiteSpace=wrap;rounded=0;" vertex="1" parent="1">
          <mxGeometry x="138" y="48" width="60" height="30" as="geometry" />
        </mxCell>
      </root>
    </mxGraphModel>
  </diagram>
</mxfile>
